<?xml version="1.0" encoding="utf-8"?>
<!-- Generator: Adobe Illustrator 25.2.1, SVG Export Plug-In . SVG Version: 6.00 Build 0)  -->
<svg version="1.1" id="Ebene_1" xmlns="http://www.w3.org/2000/svg" xmlns:xlink="http://www.w3.org/1999/xlink" x="0px" y="0px"
	 viewBox="0 0 334 41" style="enable-background:new 0 0 334 41;" xml:space="preserve">
<style type="text/css">
	.st0{fill:#020203;}
</style>
<g>
	<polygon class="st0" points="130.48,29.18 130.48,32.49 152.71,32.49 152.71,41 156.02,41 156.02,32.49 159.88,32.49 159.88,41 
		163.19,41 163.19,32.49 167.05,32.49 167.05,41 170.37,41 170.37,32.49 170.37,29.89 170.37,29.18 	"/>
	<path class="st0" d="M0,21.2L11.33,4.95H0.28V1.44H16.3v2.47L4.91,20.17h11.64v3.51H0V21.2z"/>
	<path class="st0" d="M18.37,15.85c0-4.48,3.25-8.14,7.54-8.14c2.25,0,4.13,1.16,5.01,2.41v-2.1h3.44v15.66h-3.44v-2.1
		c-0.88,1.25-2.75,2.41-5.01,2.41C21.62,23.99,18.37,20.33,18.37,15.85z M31.2,15.85c0-2.82-1.91-5.01-4.66-5.01
		s-4.66,2.19-4.66,5.01c0,2.82,1.91,5.01,4.66,5.01S31.2,18.67,31.2,15.85z"/>
	<path class="st0" d="M38.39,23.68V0.19h3.44v9.96c0.97-1.6,2.72-2.44,4.76-2.44c3.63,0,5.98,2.57,5.98,6.55v9.43h-3.44v-8.86
		c0-2.51-1.25-3.98-3.25-3.98c-2.28,0-4.04,1.75-4.04,5.14v7.7H38.39z"/>
	<path class="st0" d="M56.35,8.02h3.44v2.13c0.97-1.6,2.72-2.44,4.76-2.44c3.63,0,5.98,2.57,5.98,6.55v9.43h-3.44v-8.86
		c0-2.51-1.25-3.98-3.25-3.98c-2.28,0-4.04,1.75-4.04,5.14v7.7h-3.44V8.02z"/>
	<path class="st0" d="M73.81,15.85c0-4.48,3.25-8.14,7.54-8.14c2.25,0,4.13,1.16,5.01,2.41v-2.1h3.44v15.66h-3.44v-2.1
		c-0.88,1.25-2.75,2.41-5.01,2.41C77.06,23.99,73.81,20.33,73.81,15.85z M86.64,15.85c0-2.82-1.91-5.01-4.66-5.01
		c-2.75,0-4.66,2.19-4.66,5.01c0,2.82,1.91,5.01,4.66,5.01C84.73,20.86,86.64,18.67,86.64,15.85z"/>
	<path class="st0" d="M93.83,8.02h3.44v2.79c0.59-1.79,2.35-2.94,4.13-2.94c0.47,0,0.94,0.03,1.34,0.13v3.54
		c-0.59-0.22-1.1-0.28-1.72-0.28c-1.97,0-3.76,1.66-3.76,4.79v7.64h-3.44V8.02z"/>
	<path class="st0" d="M104.66,20.95l8.2-9.8h-8.07V8.02h12.52v2.76l-8.2,9.77h8.45v3.13h-12.89V20.95z"/>
	<path class="st0" d="M122.49,18.64v-7.55h-3.25V8.02h3.25V3.67h3.44v4.35h4.47v3.07h-4.47v6.98c0,1.97,0.85,2.66,2.63,2.66
		c0.66,0,1.35-0.09,1.85-0.31v3.07c-0.72,0.22-1.47,0.34-2.57,0.34C124.84,23.83,122.49,22.18,122.49,18.64z"/>
	<path class="st0" d="M169.42,12.56c0-6.42,5.1-11.49,11.49-11.49c6.35,0,11.48,5.07,11.48,11.49s-5.13,11.49-11.48,11.49
		C174.52,24.05,169.42,18.98,169.42,12.56z M188.67,12.56c0-4.38-3.38-7.96-7.76-7.96c-4.41,0-7.79,3.57-7.79,7.96
		c0,4.39,3.38,7.96,7.79,7.96C185.29,20.52,188.67,16.95,188.67,12.56z"/>
	<path class="st0" d="M195.89,0.19h3.44v23.49h-3.44V0.19z"/>
	<path class="st0" d="M202.78,18.92h3.57c0.28,1.72,1.69,2.32,3.22,2.32c1.5,0,2.54-0.56,2.54-1.66s-0.69-1.66-2.32-2.07l-2.57-0.69
		c-2.72-0.72-4.01-2.44-4.01-4.73c0-2.63,2.32-4.39,5.82-4.39c3.38,0,5.73,1.88,5.98,4.7h-3.44c-0.34-1.35-1.35-1.94-2.57-1.94
		c-1.35,0-2.28,0.6-2.28,1.6s0.75,1.54,2.1,1.88l2.63,0.69c2.85,0.72,4.16,2.35,4.16,4.73c0,3.04-2.63,4.63-6.13,4.63
		C205.84,23.99,202.93,22.08,202.78,18.92z"/>
	<path class="st0" d="M217.95,15.85c0-4.51,3.44-8.14,8.2-8.14c4.13,0,7.14,2.57,7.95,6.05h-3.63c-0.63-1.72-2.16-2.91-4.32-2.91
		c-2.78,0-4.69,2.1-4.69,5.01s1.91,5.01,4.69,5.01c2.16,0,3.69-1.19,4.32-2.91h3.63c-0.81,3.48-3.82,6.04-7.95,6.04
		C221.39,23.99,217.95,20.36,217.95,15.85z"/>
	<path class="st0" d="M237.35,23.68V0.19h3.44v9.96c0.97-1.6,2.72-2.44,4.76-2.44c3.63,0,5.98,2.57,5.98,6.55v9.43h-3.44v-8.86
		c0-2.51-1.25-3.98-3.25-3.98c-2.28,0-4.04,1.75-4.04,5.14v7.7H237.35z"/>
	<path class="st0" d="M254.84,15.85c0-4.64,3.19-8.14,8.04-8.14c4.79,0,8.17,3.66,7.82,8.99h-12.45c0.09,2.38,1.97,4.26,4.73,4.26
		c1.75,0,3.22-0.69,3.94-2.19h3.6c-0.91,2.91-3.66,5.23-7.67,5.23C258.19,23.99,254.84,20.55,254.84,15.85z M258.34,14.25h8.67
		c-0.53-2.54-2.32-3.66-4.22-3.66C260.63,10.59,258.81,11.84,258.34,14.25z"/>
	<path class="st0" d="M283.97,13.56l-3.41,10.12h-3.25l-5.26-15.66h3.63l3.38,10.81l3.6-10.81h2.63l3.54,10.81l3.44-10.81h3.66
		l-5.26,15.66h-3.26L283.97,13.56z"/>
	<path class="st0" d="M297.21,18.92h3.57c0.28,1.72,1.69,2.32,3.22,2.32c1.5,0,2.54-0.56,2.54-1.66s-0.69-1.66-2.32-2.07l-2.57-0.69
		c-2.72-0.72-4.01-2.44-4.01-4.73c0-2.63,2.32-4.39,5.82-4.39c3.38,0,5.73,1.88,5.98,4.7H306c-0.34-1.35-1.35-1.94-2.57-1.94
		c-1.35,0-2.28,0.6-2.28,1.6s0.75,1.54,2.1,1.88l2.63,0.69c2.85,0.72,4.16,2.35,4.16,4.73c0,3.04-2.63,4.63-6.13,4.63
		C300.27,23.99,297.36,22.08,297.21,18.92z"/>
	<path class="st0" d="M316.32,16.13v7.55h-3.44V0.19h3.44v13.78l5.98-5.95h4.35L319.67,15l8.54,8.68h-4.41L316.32,16.13z"/>
	<path class="st0" d="M329.4,2.29c0-1.25,1.06-2.29,2.32-2.29C333,0,334,1.03,334,2.29c0,1.28-1,2.32-2.28,2.32
		C330.46,4.6,329.4,3.57,329.4,2.29z M329.99,8.02h3.44v15.66h-3.44V8.02z"/>
</g>
</svg>
